


<svg version="1.1" id="transring" xmlns="http://www.w3.org/2000/svg"
                xmlns:xlink="http://www.w3.org/1999/xlink" x="0px" y="0px" viewBox="0 0 414 414"
                style="enable-background:new 0 0 414 414; background-color: #6411A9;" xml:space="preserve">

       
 <!-- Opaque Ring -->
    <path id="Opaque_Ring" class="transrgwht" stroke-dasharray="0,1000"
        style="fill: none; stroke: rgb(255, 255, 255); stroke-width: 2; stroke-miterlimit: 10; stroke-dasharray: 10, 1000;"
        d="M84.2,85c31.3-31.5,74.7-51,122.7-51c95.5,0,173,77.5,173,173s-77.5,173-173,173 c-47.8,0-91-19.4-122.3-50.7"></path>

        <!-- Curved Line Connecting First and Second Dots -->
    <!-- <path id="Curved_Line" fill="none" stroke="rgb(0, 0, 255)" stroke-width="2"
        d="M84.2,85 C120,53 160,35 206.8,35"></path>                   -->
    <!-- <path id="Curved_Line" fill="none" stroke="rgb(0, 0, 255)" stroke-width="4"
        d="M84,80 C120,53 160,35 206.8,35 C253.6,35 293.6,53 330,80 C366.4,107 392,141 372,185"></path>                   -->
    <!-- <path id="Curved_Line" fill="none" stroke="rgb(0, 0, 255)" stroke-width="4"
        d="M84,80 C120,53 160,35 206.8,35 C253.6,35 293.6,53 330,80 C366.4,107 392,141 392,205 C392,270 366.4,304 330,331"></path>                   -->

                <path id="Transparent_Ring" class="transrg"
                    style="opacity:0.4;fill:none;stroke:#FFFFFF;stroke-width:2;stroke-miterlimit:10;enable-background:new"
                    d="M84.2,85c31.3-31.5,74.7-51,122.7-51c95.5,0,173,77.5,173,173s-77.5,173-173,173
                c-47.8,0-91-19.4-122.3-50.7"></path>

                 <!-- Dots Group 1 -->
    <g id="Dots1" class="dots-nav">
        <!-- First Dot -->
        <g>
            <path class="dotsst dotsfill1" style="fill: rgb(0, 146, 255); opacity: 1;"
                d="M84,80 c-3.3,0-6,2.7-6,6s2.7,6,6,6s6-2.7,6 -6 S 87, 80, 84,80 z"></path>
        </g>
        <!-- Second Dot -->
        <g>
            <path class="dotsstro1"
                style="opacity: 1; fill: none; stroke: rgb(255, 255, 255); stroke-width: 2; stroke-miterlimit: 10;"
                d="M84,80c-3.3,0-6,2.7-6,6s2.7,6,6,6s6-2.7,6 -6 S 87, 80, 84,80 z"></path>
        </g>
    </g>
                <g id="Dots2" class="dots-nav">
                    <g>
                        <path class="dotsst dotsfill2" style="fill: rgb(0, 146, 255); opacity: 1;"
                            d="M206.8,29c-3.3,0-6,2.7-6,6s2.7,6,6,6s6-2.7,6 -6S 210.1,29, 206.8,29 z M206.8"></path>
                    </g>
                    <g>
                        <path class="dotsstro2"
                            style="opacity: 1; fill: none; stroke: rgb(255, 255, 255); stroke-width: 2; stroke-miterlimit: 10;"
                            d="M206.8,29c-3.3,0-6,2.7-6,6s2.7,6,6,6s6-2.7,6 -6S 210.1,29, 206.8,29 z M206.8"></path>
                    </g>
                </g>
                <g id="Dots3" class="dots-nav">
                    <g>
                        <path class="dotsst dotsfill3" style="fill: rgb(0, 146, 255); opacity: 1;"
                            d="M332,85 c-3.3,0-6,2.7-6,6s2.7,6,6,6s6-2.7,6 -6 S 335,85, 332,85 z M332"></path>
                    </g>
                    <g>
                        <path class="dotsstro3"
                            style="opacity: 1; fill: none; stroke: rgb(255, 255, 255); stroke-width: 2; stroke-miterlimit: 10;"
                            d="M332,85 c-3.3,0-6,2.7-6,6s2.7,6,6,6s6-2.7,6 -6 S 335,85, 332,85 z M332"></path>
                    </g>
                </g>
                <g id="Dots4" class="dots-nav">
                    <g>
                        <path class="dotsst dotsfill4" style="fill: rgb(0, 146, 255); opacity: 1;"
                            d="M380,205 c-3.3,0-6,2.7-6,6s2.7,6,6,6s6-2.7,6 -6 S 383,205, 380,205 z M380"></path>
                    </g>
                    <g>
                        <path class="dotsstro4"
                            style="opacity: 1; fill: none; stroke: rgb(255, 255, 255); stroke-width: 2; stroke-miterlimit: 10;"
                            d="M380,205 c-3.3,0-6,2.7-6,6s2.7,6,6,6s6-2.7,6 -6 S 383,205, 380,205 z M380"></path>
                    </g>
                </g>
                <g id="Dots5" class="dots-nav">
                    <g>
                        <path class="dotsst dotsfill5" style="fill: rgb(0, 146, 255); opacity: 1;"
                            d="M335,315 c-3.3,0-6,2.7-6,6s2.7,6,6,6s6-2.7,6 -6 S 340,315, 335,315 z M335"></path>
                    </g>
                    <g>
                        <path class="dotsstro5"
                            style="opacity: 1; fill: none; stroke: rgb(255, 255, 255); stroke-width: 2; stroke-miterlimit: 10;"
                            d="M335,315 c-3.3,0-6,2.7-6,6s2.7,6,6,6s6-2.7,6 -6 S 340,315, 335,315 z M335"></path>
                    </g>
                </g>
                <g id="Dots6" class="dots-nav">
                    <g>
                        <path class="dotsst dotsfill6" style="fill: rgb(0, 146, 255); opacity: 1;"
                            d="M210,375 c-3.3,0-6,2.7-6,6s2.7,6,6,6s6-2.7,6 -6 S 215,375, 210,375 z M210"></path>
                    </g>
                    <g>
                        <path class="dotsstro6"
                            style="opacity: 1; fill: none; stroke: rgb(255, 255, 255); stroke-width: 2; stroke-miterlimit: 10;"
                            d="M210,375 c-3.3,0-6,2.7-6,6s2.7,6,6,6s6-2.7,6 -6 S 215,375, 210,375 z M210"></path>
                    </g>
                </g>
                <g id="Dots7" class="dots-nav">
                    <g>
                        <path class="dotsst dotsfill7" style="fill: rgb(0, 146, 255); opacity: 1;"
                            d="M88,324 c-3.3,0-6,2.7-6,6s2.7,6,6,6s6-2.7,6 -6 S 92,324, 88,324 z M88"></path>
                    </g>
                    <g>
                        <path class="dotsstro7"
                            style="opacity: 1; fill: none; stroke: rgb(255, 255, 255); stroke-width: 2; stroke-miterlimit: 10;"
                            d="M88,324 c-3.3,0-6,2.7-6,6s2.7,6,6,6s6-2.7,6 -6 S 92,324, 88,324 z M88"></path>
                    </g>
                </g>





            </svg>

           
